# xmcd
#
# Track frame offsets:
#	150
#	21589
#	39741
#	56145
#	72381
#	92159
#	111228
#	131652
#	149685
#	168965
#	189354
#	210457
#	229465
#	249697
#	269252
#	287513
#	303106
#	320506
#	338481
#
# Disc length: 4741 seconds
#
# Revision: 0
# Processed by: cddbd v1.5.2PL0 Copyright (c) Steve Scherf et al.
# Submitted via: EasyCDDAExtractor 2010.6.0.0
#
DISCID=24128313
DTITLE=Rosenstolz Die Suche geht weiter - ll
DYEAR=1900
DGENRE=
TTITLE0=iikgo+ürgw
TTITLE1=Stück 2 - Titel
TTITLE2=rwgrplörw+güölre
TTITLE3=w
TTITLE4=g
TTITLE5=üpgwr+lwegl+#wlf#+ew+
TTITLE6=Stück 7 - Titel
TTITLE7=Stück 8 - Titel
TTITLE8=flkfofof
TTITLE9=Stück 10 - Titel
TTITLE10=Stück 11 - Titel
TTITLE11=f
TTITLE12=f
TTITLE13=f
TTITLE14=f
TTITLE15=Stück 16 - Titel
TTITLE16=ff
TTITLE17=f
TTITLE18=f
EXTD=
EXTT0=
EXTT1=
EXTT2=
EXTT3=
EXTT4=
EXTT5=
EXTT6=
EXTT7=
EXTT8=
EXTT9=
EXTT10=
EXTT11=
EXTT12=
EXTT13=
EXTT14=
EXTT15=
EXTT16=
EXTT17=
EXTT18=
PLAYORDER=
